<svg width="32" height="32" viewBox="0 0 32 32" fill="none" xmlns="http://www.w3.org/2000/svg">
<path id="Vector" d="M6.64562 26.1765L15.9955 16.8279L25.3453 26.1765C25.7984 27.5917 26.7606 29.9449 28.3684 31.0232C28.4766 31.0954 28.5889 31.1595 28.7052 31.2076C28.6851 30.5622 28.9257 29.9128 29.4148 29.4197C29.908 28.9266 30.5575 28.6901 31.203 28.7101C31.1549 28.5939 31.0908 28.4816 31.0186 28.3734C29.9401 26.7658 27.5866 25.8077 26.1713 25.3507L16.8214 16.0021L26.1753 6.64947C27.5906 6.19647 29.9441 5.23434 31.0226 3.6268C31.0948 3.51856 31.1589 3.40631 31.207 3.29005C30.5615 3.3101 29.912 3.06957 29.4189 2.58049C28.9257 2.0874 28.6891 1.43797 28.7092 0.792545C28.5929 0.840651 28.4807 0.904793 28.3724 0.976952C26.7646 2.05533 25.8064 4.40852 25.3493 5.82364L15.9995 15.1723L6.64963 5.82364C6.19657 4.40852 5.23432 2.05533 3.62656 0.97695C3.51831 0.904791 3.40605 0.84065 3.28978 0.792544C3.30982 1.43797 3.06926 2.0874 2.58012 2.58049C2.08696 3.07358 1.43744 3.3101 0.791935 3.29005C0.840048 3.40631 0.904198 3.51856 0.976366 3.6268C2.05489 5.23434 4.40839 6.19246 5.8237 6.64946L15.1736 15.9981L5.8237 25.3467C4.40839 25.7997 2.05489 26.7618 0.976367 28.3694C0.904198 28.4776 0.840048 28.5899 0.791936 28.7061C1.43745 28.6861 2.08696 28.9266 2.58012 29.4157C3.07327 29.9048 3.30982 30.5582 3.28978 31.2036C3.40605 31.1555 3.51831 31.0914 3.62656 31.0192C5.23432 29.9408 6.19256 27.5877 6.64963 26.1725L6.64562 26.1765Z" fill="#281F13" stroke="#281F13"/>
</svg>
